USFL
nRows=128
nColumns=2
inDegrees=yes
endheader
time	tib_ant_r	
2	 56.416790	
2.0625	 56.424288	
2.125	 56.401559	
2.1875	 56.384728	
2.25	 56.396284	
2.3125	 56.395492	
2.375	 56.362532	
2.4375	 56.356798	
2.5	 56.370915	
2.5625	 56.406100	
2.625	 56.406532	
2.6875	 56.373991	
2.75	 56.369975	
2.8125	 56.326548	
2.875	 56.207918	
2.9375	 56.161348	
3	 56.132573	
3.0625	 56.249022	
3.125	 56.387644	
3.1875	 56.424017	
3.25	 56.334252	
3.3125	 56.225739	
3.375	 56.278205	
3.4375	 56.297184	
3.5	 56.200853	
3.5625	 56.220636	
3.625	 56.223262	
3.6875	 56.182247	
3.75	 56.160345	
3.8125	 56.113146	
3.875	 56.122195	
3.9375	 56.135553	
4	 56.077628	
4.0625	 56.037902	
4.125	 55.994496	
4.1875	 55.985850	
4.25	 55.857361	
4.3125	 55.653759	
4.375	 55.279955	
4.4375	 55.235116	
4.5	 55.482049	
4.5625	 55.720323	
4.625	 56.115546	
4.6875	 51.520143	
4.75	 51.089607	
4.8125	 51.056114	
4.875	 51.093604	
4.9375	 50.932853	
5	 51.045777	
5.0625	 51.166868	
5.125	 51.105647	
5.1875	 51.270193	
5.25	 51.479444	
5.3125	 51.330156	
5.375	 51.257500	
5.4375	 51.381115	
5.5	 50.969199	
5.5625	 50.736450	
5.625	 50.823158	
5.6875	 50.663479	
5.75	 50.544537	
5.8125	 50.502255	
5.875	 50.507150	
5.9375	 50.561047	
6	 50.636507	
6.0625	 50.487135	
6.125	 50.346019	
6.1875	 50.298865	
6.25	 50.344746	
6.3125	 50.350201	
6.375	 50.339298	
6.4375	 50.306342	
6.5	 50.270617	
6.5625	 50.240568	
6.625	 50.278927	
6.6875	 50.324488	
6.75	 50.320593	
6.8125	 50.278076	
6.875	 50.224760	
6.9375	 50.192403	
7	 50.144842	
7.0625	 50.061504	
7.125	 50.110322	
7.1875	 50.018686	
7.25	 50.035983	
7.3125	 49.977184	
7.375	 50.037457	
7.4375	 50.085452	
7.5	 50.112938	
7.5625	 50.114877	
7.625	 50.099022	
7.6875	 50.042769	
7.75	 50.120285	
7.8125	 50.165979	
7.875	 50.120425	
7.9375	 50.152928	
8	 50.124426	
8.0625	 50.092382	
8.125	 50.238451	
8.1875	 50.386034	
8.25	 50.374690	
8.3125	 50.592430	
8.375	 50.649862	
8.4375	 50.637407	
8.5	 50.698258	
8.5625	 50.682105	
8.625	 50.637336	
8.6875	 50.754650	
8.75	 50.854084	
8.8125	 50.822549	
8.875	 50.967530	
8.9375	 50.975458	
9	 50.960194	
9.0625	 51.268299	
9.125	 51.680512	
9.1875	 51.666266	
9.25	 52.473042	
9.3125	 52.891634	
9.375	 52.658341	
9.4375	 52.674576	
9.5	 52.362663	
9.5625	 52.345078	
9.625	 52.419234	
9.6875	 52.758194	
9.75	 52.787836	
9.8125	 52.843210	
9.875	 53.025363	
9.9375	 53.154220	
